<svg version="1.1" id="Layer_1" xmlns:x="ns_extend;" xmlns:i="ns_ai;" xmlns:graph="ns_graphs;" xmlns="http://www.w3.org/2000/svg" xmlns:xlink="http://www.w3.org/1999/xlink" x="0px" y="0px" viewBox="0 0 328.6 55" style="enable-background:new 0 0 328.6 55;" xml:space="preserve">
 <style type="text/css">
  .st0{fill:#0A20A0;}
 </style>
 <metadata>
  <sfw xmlns="ns_sfw;">
   <slices>
   </slices>
   <sliceSourceBounds bottomLeftOrigin="true" height="55" width="328.6" x="-69.7" y="-224.1">
   </sliceSourceBounds>
  </sfw>
 </metadata>
 <g>
  <path class="st0" d="M44.8,40.2L26.1,51v-9.6c7.7-0.9,13.2-7.9,12.2-15.5c-0.2-1.3-0.5-2.6-1-3.9l8.3-4.8v21.6
		C45.6,39.4,45.3,39.9,44.8,40.2 M4.1,40.2c-0.5-0.3-0.8-0.8-0.8-1.4V17.2l8.3,4.8c-3,7.1,0.3,15.3,7.4,18.4c1.2,0.5,2.5,0.9,3.8,1
		V51L4.1,40.2z M24.5,25.6l-8.3-4.8c3.7-4.6,10.4-5.3,15-1.6c0.6,0.5,1.1,1,1.6,1.6L24.5,25.6z M14.5,23.7l8.3,4.8v9.6
		c-5.8-0.9-9.8-6.4-8.9-12.2C14,25.1,14.2,24.4,14.5,23.7L14.5,23.7z M35.1,27.5c0,5.3-3.8,9.7-9,10.5v-9.6l8.3-4.8
		C34.9,24.9,35.1,26.2,35.1,27.5 M23.7,3.5c0.5-0.3,1.1-0.3,1.6,0L44,14.3l-8.3,4.8C31,13,22.3,11.7,16.1,16.3
		c-1.1,0.8-2,1.8-2.8,2.8L5,14.3L23.7,3.5z M48.3,13.8C48.3,13.8,48.3,13.8,48.3,13.8l-0.1-0.2c-0.4-0.7-1-1.3-1.7-1.7L26.9,0.7
		c-1.5-0.9-3.4-0.9-4.9,0L2.5,12c-0.7,0.4-1.3,1-1.7,1.7c0,0,0,0.1-0.1,0.1c0,0,0,0.1,0,0.1C0.2,14.6,0,15.4,0,16.2v22.6
		c0,1.8,0.9,3.4,2.5,4.3L22,54.3c1.5,0.9,3.4,0.9,4.9,0l19.6-11.3c1.5-0.9,2.5-2.5,2.5-4.3V16.2C48.9,15.4,48.7,14.6,48.3,13.8">
  </path>
  <path class="st0" d="M86.7,39.3c-0.8,0.1-1.7,0.1-2.7,0.1h-5.8v-8.9h5.5c1,0,1.9,0,2.7,0.1c2.2,0.2,4.2,1.6,4.2,4.4
		C90.7,37.2,89,39.1,86.7,39.3 M78.2,14.8h4.9c0.9,0,1.8,0.1,2.7,0.2c2.1,0.3,3.3,1.4,3.3,3.8c0,2.5-1.4,3.5-3.4,3.8
		c-0.9,0.1-1.8,0.2-2.6,0.2h-4.9V14.8z M94.3,25.3c4.1-1.4,6.1-4.3,6.1-8.1c0-5.4-3.8-9.7-10.7-10.6c-1.8-0.2-3.5-0.3-5.3-0.2h-17
		v41.4h16.5c2,0.1,4.1,0,6.1-0.2c5.6-0.7,11.9-4.5,11.9-12.2C101.9,30.3,99.5,26.8,94.3,25.3">
  </path>
  <path class="st0" d="M117.4,39.2c-0.1-1-0.2-2-0.1-2.9V6.4h-10.8v30.1c0,2.4,0,4,0.1,5.7c0.2,4.3,3.1,6.2,8,6.2
		c2.4,0,4.3-0.1,6.3-0.3v-7.3C118.1,40.9,117.6,40.5,117.4,39.2">
  </path>
  <path class="st0" d="M146.1,33.9c0,4.3-2.1,7.4-5.5,7.4c-3.4,0-4.9-1.8-5.2-4.9c-0.2-1.5-0.2-2.9-0.2-4.4V15.7h-10.8v18.7
		c0,2,0.1,4,0.3,6.1c0.7,4.4,4.7,8.1,11.3,8.1c2.5,0.1,4.9-0.6,7.1-1.8c0,0,0.8-0.5,1.2-0.7c0.6-0.5,1.3-1,1.8-1.5v3.1h10.8v-32
		h-10.8V33.9z">
  </path>
  <path class="st0" d="M172.7,27.9c0.7-4,2.7-5.6,5.5-5.6c2.8,0,4.7,1.9,5.3,5.6H172.7z M178.7,14.9c-10.7,0-17.1,7.6-17.1,17
		c0,11.3,7.3,16.7,16.5,16.7c8.2,0,14.2-4.1,16.1-11.3h-10.6c-0.4,2.5-2.3,4-5.3,4c-3.1,0-5.4-1.5-5.9-6.8h22.3
		c0.1-1,0.2-2.1,0.2-3.1C194.8,23.1,189.4,14.9,178.7,14.9">
  </path>
  <path class="st0" d="M214.4,41.3c-3.7,0-5.7-3-5.7-9.8c0-6.2,2-9.2,5.6-9.2c2.7,0,4.8,1.5,5.3,5.8H230c-0.3-7.2-6.1-13.1-15.5-13.1
		c-9.4,0-16.9,6.2-16.9,17.2c0,10.6,7,16.5,16.1,16.5c8.7,0,15.1-4.3,16.3-12.6h-10.6C218.9,39.5,216.9,41.3,214.4,41.3">
  </path>
  <path class="st0" d="M250.1,41.3c-3.8,0-6.2-3.2-6.2-9.5c0-6.4,2.3-9.5,6.2-9.5c3.8,0,6.2,3.1,6.2,9.5S254,41.3,250.1,41.3
		 M250.1,14.9c-10.5,0-17.2,6.5-17.2,16.9s6.7,16.9,17.2,16.9c10.5,0,17.2-6.6,17.2-16.9S260.6,14.9,250.1,14.9">
  </path>
  <path class="st0" d="M285.2,17.6L285.2,17.6c0,0-0.7,0.6-1,0.9c-0.5,0.5-1,1.1-1.4,1.7v-4.4H272v32h10.8V36c0-9.7,2.9-12.7,11-12.1
		v-8.8c-0.8-0.1-1.6-0.2-2.5-0.2C289.1,14.9,286.9,15.9,285.2,17.6">
  </path>
  <path class="st0" d="M306.5,27.9c0.7-4,2.7-5.6,5.5-5.6c2.8,0,4.7,1.9,5.3,5.6H306.5z M328.6,31.3c0-8.3-5.4-16.4-16.1-16.4
		c-10.7,0-17.1,7.6-17.1,17c0,11.3,7.3,16.7,16.5,16.7c8.2,0,14.2-4.1,16.1-11.3h-10.6c-0.4,2.5-2.3,4-5.3,4c-3.1,0-5.4-1.5-5.9-6.8
		h22.3C328.6,33.4,328.6,32.4,328.6,31.3">
  </path>
 </g>
</svg>