<svg height="45px" id="Layer_2" viewBox="0 0 203.164 60.9475" width="150px" xmlns="http://www.w3.org/2000/svg" xmlns:xlink="http://www.w3.org/1999/xlink"><defs><style>.cls-1{fill:url(#New_Gradient_Swatch);}.cls-2{fill:#2a353c;}</style><linearGradient gradientUnits="userSpaceOnUse" id="New_Gradient_Swatch" x1=".7948" x2="53.7752" y1="60.1222" y2="7.1418"><stop offset=".1915" stop-color="#a1cd3a"></stop><stop offset=".4178" stop-color="#00a79d"></stop><stop offset=".6429" stop-color="#007988"></stop></linearGradient></defs><g id="Layer_1-2"><path class="cls-2" d="m72.6057,24.3465c2.1339-2.0723,4.7499-3.1084,7.8489-3.1084s5.7155,1.0361,7.8493,3.1084,3.2003,4.5704,3.2003,7.4943-1.0665,5.4244-3.2003,7.5015c-2.1339,2.0769-4.7503,3.1154-7.8493,3.1154s-5.715-1.0385-7.8489-3.1154c-2.1339-2.0771-3.2008-4.5776-3.2008-7.5015s1.0669-5.422,3.2008-7.4943Zm3.2148,12.2491c1.2678,1.2868,2.8125,1.9303,4.6341,1.9303s3.3663-.6435,4.6341-1.9303c1.2683-1.2868,1.902-2.8695,1.902-4.7477s-.6337-3.4633-1.902-4.7551c-1.2678-1.2914-2.8125-1.9373-4.6341-1.9373s-3.3663.6459-4.6341,1.9373c-1.2678,1.2918-1.902,2.8767-1.902,4.7551s.6341,3.4609,1.902,4.7477Z"></path><path class="cls-2" d="m103.3724,31.5569c-.293-.0946-.7285-.1467-1.3058-.1561-1.0311,0-1.8474.3265-2.4483.9794s-.9014,1.5897-.9014,2.8103v6.8272h-3.9175v-14.2505h3.9175v1.7458c.1135-.1325.2747-.3051.4826-.5182.2083-.2127.6651-.4944,1.37-.8444.7049-.35,1.4451-.5252,2.2212-.5252h.5817v3.9317Z"></path><path class="cls-2" d="m106.8824,29.7045c1.5233-1.4807,3.3309-2.2212,5.422-2.2212.7381,0,1.4408.1018,2.1077.3051.6673.2035,1.2137.4448,1.6395.7239.4258.2793.8045.5608,1.1355.8446s.5726.5298.7237.7381l.2131.2981-2.4697,2.4697c-.0756-.1325-.2009-.3075-.376-.5252s-.5538-.4992-1.1355-.8446c-.5822-.3452-1.1949-.518-1.8382-.518-1.0316,0-1.9185.3832-2.6614,1.1497s-1.1141,1.6915-1.1141,2.7748.3738,2.0085,1.1211,2.775c.7477.7665,1.6325,1.1497,2.6544,1.1497.6433,0,1.256-.1561,1.8382-.4684.5817-.3123,1.0053-.6245,1.27-.9368l.3834-.4826,2.3278,2.4697c-.0568.0758-.1349.1821-.2341.3192-.0996.1374-.3289.369-.6887.6955-.3594.3265-.7472.6151-1.1639.8658-.4162.2509-.9577.4826-1.6251.6955-.6669.2129-1.3696.3195-2.1077.3195-2.0911,0-3.8987-.7405-5.422-2.2214-1.5233-1.4807-2.2854-3.21-2.2854-5.1877s.7621-3.707,2.2854-5.1879Z"></path><path class="cls-2" d="m124.5707,29.513c.1135-.1513.2721-.3382.4756-.5605.2035-.2225.6577-.523,1.3626-.9014.7049-.3784,1.4451-.5677,2.2212-.5677,1.6277,0,2.9545.5629,3.9812,1.689,1.0267,1.1261,1.5399,2.6448,1.5399,4.5562v8.2891h-3.9175v-7.8491c0-.8706-.2577-1.5731-.7734-2.1079-.5158-.5346-1.1805-.8018-1.9941-.8018-.8896,0-1.5945.2909-2.1151.873-.5201.5817-.7804,1.4074-.7804,2.4767v7.4091h-3.9319v-20.3537h3.9319v7.8491Z"></path><path class="cls-2" d="m140.9201,36.1982c.1515.7758.5629,1.4312,1.2346,1.9657.6721.5348,1.5189.8021,2.5409.8021.7381,0,1.4216-.1443,2.0509-.433.6293-.2885,1.0717-.5795,1.3272-.8728l.4118-.44,2.0295,2.6116-.2625.2625c-.1184.1184-.3717.3195-.7595.6033s-.7997.537-1.2346.7593c-.4354.2225-1.001.4188-1.6963.5891-.6957.1703-1.4124.2555-2.1505.2555-2.0911,0-3.8747-.7263-5.3508-2.1788-1.4761-1.4523-2.2142-3.1958-2.2142-5.2303s.7285-3.7779,2.1858-5.2303c1.4569-1.4526,3.203-2.1788,5.2373-2.1788s3.7284.6789,5.0813,2.0369c1.353,1.3578,2.0299,3.0538,2.0299,5.0883l-.1424,1.5897h-10.3186Zm1.2276-4.6413c-.5817.4826-.9909,1.1117-1.2276,1.8878h6.5435c-.1515-.7571-.5136-1.3816-1.0861-1.8736-.5726-.4922-1.2748-.7381-2.1077-.7381s-1.5399.2413-2.1221.7239Z"></path><path class="cls-2" d="m161.8809,31.9827c-.0568-.0758-.1489-.1797-.2769-.3123-.1275-.1325-.3948-.3051-.8018-.5182-.407-.2127-.8232-.3192-1.249-.3192-.5394,0-.9652.116-1.2774.3476-.3123.2319-.4682.4992-.4682.8021,0,.369.2223.6765.6669.9226s.9866.466,1.6251.6599c.6389.1941,1.2849.4258,1.9378.6955s1.2014.7051,1.6465,1.3058c.4446.6009.6669,1.3462.6669,2.2356,0,1.2774-.504,2.3468-1.5115,3.2078-1.008.861-2.3915,1.2916-4.1515,1.2916-.7573,0-1.4761-.09-2.1574-.2697-.6813-.1797-1.2351-.3974-1.6609-.6529s-.797-.5086-1.1141-.7595c-.3171-.2507-.5463-.4612-.6883-.6315l-.1987-.2981,2.1858-2.1716c.0756.1135.1961.2579.3616.4328.1655.1751.5136.4116,1.0433.7097s1.0787.4472,1.6465.4472c.6245,0,1.0953-.1208,1.4124-.362s.4756-.5557.4756-.9438-.2227-.7121-.6673-.9724c-.4446-.2601-.9936-.4872-1.6465-.6813-.6529-.1939-1.2988-.428-1.9373-.7025-.6389-.2745-1.1805-.7003-1.6251-1.2774-.445-.5771-.6673-1.3058-.6673-2.1858,0-1.1449.5324-2.181,1.5967-3.1084,1.0647-.9274,2.3727-1.391,3.9249-1.391.9839,0,1.8897.1845,2.7178.5536s1.4028.7287,1.7246,1.0787l.497.5536-2.0299,2.3136Z"></path><path class="cls-2" d="m168.7541,23.5659h3.4916v4.4994h2.8955v3.4916h-2.8955v5.6633c0,.4448.1633.8232.4896,1.1355.3267.3123.7407.4684,1.2421.4684.2555,0,.504-.026.7451-.078.2415-.0522.4236-.1066.5468-.1633l.1703-.0568v3.3497c-.7761.2933-1.6513.4352-2.626.4258-2.9995,0-4.4996-1.6465-4.4996-4.9394v-5.8052h-2.4693v-3.4916h1.3058c.4446,0,.8228-.1751,1.1355-.5252.3118-.35.4682-.8042.4682-1.3626v-2.6116Z"></path><path class="cls-2" d="m187.2107,31.5569c-.293-.0946-.7285-.1467-1.3058-.1561-1.0311,0-1.8474.3265-2.4483.9794s-.9014,1.5897-.9014,2.8103v6.8272h-3.9175v-14.2505h3.9175v1.7458c.1135-.1325.2747-.3051.4826-.5182.2083-.2127.6651-.4944,1.37-.8444.7049-.35,1.4451-.5252,2.2212-.5252h.5822l-.0004,3.9317Z"></path><path class="cls-2" d="m193.8669,41.8757l-5.5211-14.1085h4.0738l3.3353,9.453,3.3497-9.453h4.0594l-5.6635,15.1163c-1.2962,3.4916-3.1366,5.2375-5.5211,5.2375-.4258,0-.8468-.0378-1.263-.1135-.4166-.0758-.7241-.1513-.9228-.2271l-.2839-.0994v-3.4775c.3878.1893.8704.2839,1.4478.2839,1.1827,0,2.0059-.5346,2.4697-1.6039l.4398-1.0078Z"></path><path class="cls-1" d="m.866,29.3493c-1.0598-1.0597-1.0598-2.778,0-3.8377,1.0596-1.0597,2.7779-1.0597,3.8377,0,1.0596,1.0597,1.0596,2.778,0,3.8377-1.0598,1.0597-2.7781,1.0597-3.8377,0Zm52.9096,12.3314l-2.0272,2.0272-12.9658,12.9658-3.479,3.4791c-1.0598,1.0596-2.7779,1.0596-3.8377-.0001-1.0598-1.0598-1.0596-2.7779-.0002-3.8375l3.0669-3.067c1.0596-1.0597,1.0598-2.7778,0-3.8376s-2.7779-1.0598-3.8377-.0001l-2.4894,2.4893-2.8356,2.8358c-1.0598,1.0597-2.7781,1.0598-3.838,0s-1.0594-2.7781.0002-3.8377l.5705-.5705.2595-.2595c.0061-.0062.0102-.0137.0162-.02l12.262-12.2619c4.0517.5601,8.3104-.7126,11.419-3.8213,5.2678-5.2678,5.2678-13.8391-.0002-19.1068-5.2678-5.268-13.8391-5.2682-19.1071-.0002-3.1076,3.1077-4.3804,7.3649-3.8215,11.4156l-13.2252,13.2252c-1.0596,1.0594-2.7777,1.0591-3.8373-.0005-1.0596-1.0598-1.0596-2.7779,0-3.8376l6.4919-6.492,5.2678-5.2676c1.0594-1.0595,1.0598-2.7778,0-3.8376-1.0598-1.0597-2.7781-1.0596-3.8377,0l-1.7541,1.7541-2.1497,2.1497c-1.0596,1.0596-2.7779,1.0596-3.8375,0s-1.0598-2.7781-.0002-3.8377l12.9982-12.9982c.0036-.0036.0078-.0065.0111-.0101,9.5244-9.5012,25.002-9.4946,34.5174.021,9.5224,9.5224,9.5229,25.0168.0005,34.539Zm-13.4769,1.8823c-1.0596-1.0596-2.7779-1.0596-3.8377.0001-1.0596,1.0597-1.0596,2.778,0,3.8376s2.7779,1.0598,3.8377.0001c1.0596-1.0598,1.0596-2.778,0-3.8379Zm-23.9863,12.7175c-1.0598,1.0597-1.0598,2.7779,0,3.8376,1.0596,1.0597,2.7779,1.0597,3.8377,0,1.0596-1.0597,1.0596-2.7779,0-3.8376-1.0598-1.0597-2.7781-1.0597-3.8377,0ZM.8825,40.8457c-1.0596,1.0598-1.0596,2.7779,0,3.8377,1.0598,1.0596,2.7781,1.0596,3.8377,0s1.0598-2.7779,0-3.8377c-1.0596-1.0597-2.7779-1.0597-3.8377,0Zm28.1772-5.159l4.175-4.1748c1.0586-1.0585,1.0586-2.7751,0-3.8337s-2.775-1.0586-3.8336,0l-4.174,4.1741-10.2499,10.2498-2.4501,2.4501L.7948,56.2846c-1.0596,1.0594-1.0598,2.7778,0,3.8375,1.0596,1.0598,2.7781,1.0596,3.8377,0l6.0204-6.0204c.0102-.0107.0172-.0235.0279-.0343l18.3801-18.38s-.0007-.0005-.0012-.0007Zm9.3659-9.3494c1.0596-1.0597,1.0596-2.7779,0-3.8377-1.0596-1.0597-2.7779-1.0597-3.8377,0-1.0596,1.0598-1.0596,2.778,0,3.8377,1.0598,1.0597,2.7781,1.0597,3.8377,0Z"></path></g></svg>