<svg width="377px" height="73px" viewBox="0 0 377 73" version="1.1" xmlns="http://www.w3.org/2000/svg" xmlns:xlink="http://www.w3.org/1999/xlink">
 <!-- Generator: Sketch 54.1 (76490) - https://sketchapp.com -->
 <title>
  otterLogo_horizontal_blu
 </title>
 <desc>
  Created with Sketch.
 </desc>
 <g id="otterLogo_horizontal_blu" stroke="none" stroke-width="1" fill="none" fill-rule="evenodd">
  <g id="logo-otter" fill="#007AFF">
   <path d="M119,1 L119,1 C124.522847,1 129,5.4771525 129,11 L129,62 C129,67.5228475 124.522847,72 119,72 L119,72 C113.477153,72 109,67.5228475 109,62 L109,11 C109,5.4771525 113.477153,1 119,1 Z" id="Rectangle-3-Copy-5">
   </path>
   <path d="M91,1 L91,1 C96.5228475,1 101,5.4771525 101,11 L101,62 C101,67.5228475 96.5228475,72 91,72 L91,72 C85.4771525,72 81,67.5228475 81,62 L81,11 C81,5.4771525 85.4771525,1 91,1 Z" id="Rectangle-3-Copy-4">
   </path>
   <path d="M147,24 L147,24 C152.522847,24 157,28.4771525 157,34 L157,40 C157,45.5228475 152.522847,50 147,50 L147,50 C141.477153,50 137,45.5228475 137,40 L137,34 C137,28.4771525 141.477153,24 147,24 Z" id="Rectangle-3-Copy-3">
   </path>
   <path d="M175,14 L175,14 C180.522847,14 185,18.4771525 185,24 L185,49 C185,54.5228475 180.522847,59 175,59 L175,59 C169.477153,59 165,54.5228475 165,49 L165,24 C165,18.4771525 169.477153,14 175,14 Z" id="Rectangle-3-Copy-2">
   </path>
   <path d="M36.5365318,53.8373736 C46.2424249,53.8373736 54.1106058,45.9691926 54.1106058,36.2632995 C54.1106058,26.5574064 46.2424249,18.6892254 36.5365318,18.6892254 C26.8306387,18.6892254 18.9624577,26.5574064 18.9624577,36.2632995 C18.9624577,45.9691926 26.8306387,53.8373736 36.5365318,53.8373736 Z M36.5,73 C16.3416066,73 0,56.6583934 0,36.5 C0,16.3416066 16.3416066,0 36.5,0 C56.6583934,0 73,16.3416066 73,36.5 C73,56.6583934 56.6583934,73 36.5,73 Z" id="Mask-Copy" fill-rule="nonzero">
   </path>
  </g>
  <path d="M244.370173,50.736 C235.424173,50.736 229.292173,44.268 229.292173,35.49 C229.292173,26.712 235.424173,20.244 244.370173,20.244 C252.980173,20.244 259.406173,26.376 259.406173,35.49 C259.406173,44.562 252.980173,50.736 244.370173,50.736 Z M244.370173,45.99 C249.872173,45.99 254.114173,41.58 254.114173,35.49 C254.114173,29.358 249.872173,24.99 244.370173,24.99 C238.532173,24.99 234.542173,29.652 234.542173,35.49 C234.542173,41.328 238.532173,45.99 244.370173,45.99 Z M270.872173,50.736 C267.344173,50.736 265.160173,48.51 265.160173,43.932 L265.160173,33.894 L262.640173,33.894 L262.640173,29.904 L265.160173,29.904 L265.160173,23.1 L269.864173,22.596 L269.864173,29.904 L275.870173,29.904 L275.870173,33.894 L269.864173,33.894 L269.864173,43.47 C269.864173,45.57 270.494173,46.326 271.838173,46.326 C272.636173,46.326 273.770173,46.032 274.862173,45.444 L276.080173,49.518 C274.862173,50.19 273.560173,50.736 270.872173,50.736 Z M286.202173,50.736 C282.674173,50.736 280.490173,48.51 280.490173,43.932 L280.490173,33.894 L277.970173,33.894 L277.970173,29.904 L280.490173,29.904 L280.490173,23.1 L285.194173,22.596 L285.194173,29.904 L291.200173,29.904 L291.200173,33.894 L285.194173,33.894 L285.194173,43.47 C285.194173,45.57 285.824173,46.326 287.168173,46.326 C287.966173,46.326 289.100173,46.032 290.192173,45.444 L291.410173,49.518 C290.192173,50.19 288.890173,50.736 286.202173,50.736 Z M314.174173,39.9 C314.174173,40.656 314.090173,41.412 314.048173,41.79 L299.096173,41.79 C299.726173,44.688 301.910173,46.452 304.934173,46.452 C307.328173,46.452 309.008173,45.36 310.058173,44.058 L313.334173,46.872 C311.612173,49.098 308.714173,50.736 304.682173,50.736 C298.718173,50.736 294.224173,46.536 294.224173,40.152 C294.224173,33.852 298.508173,29.61 304.220173,29.61 C310.268173,29.61 314.174173,33.936 314.174173,39.9 Z M304.472173,33.852 C301.868173,33.852 299.852173,35.322 299.180173,38.01 L309.428173,38.01 C308.840173,35.532 307.160173,33.852 304.472173,33.852 Z M330.176173,29.61 L330.764173,29.61 L330.764173,34.86 C330.218173,34.818 329.672173,34.776 329.336173,34.776 C325.766173,34.776 323.750173,37.338 323.750173,40.698 L323.750173,50.4 L319.046173,50.4 L319.046173,29.904 L323.750173,29.904 L323.750173,33.012 L323.792173,33.012 C325.388173,30.828 327.698173,29.61 330.176173,29.61 Z M337.274173,50.736 C335.510173,50.736 334.082173,49.35 334.082173,47.628 C334.082173,45.906 335.510173,44.478 337.274173,44.478 C338.996173,44.478 340.424173,45.906 340.424173,47.628 C340.424173,49.35 338.996173,50.736 337.274173,50.736 Z M361.046173,29.904 L365.750173,29.904 L365.750173,50.4 L361.256173,50.4 L361.256173,47.67 L361.172173,47.67 C359.702173,49.644 357.476173,50.736 354.662173,50.736 C348.992173,50.736 344.750173,46.578 344.750173,40.236 C344.750173,34.062 348.992173,29.61 354.620173,29.61 C357.224173,29.61 359.450173,30.576 360.962173,32.382 L361.046173,32.382 L361.046173,29.904 Z M355.418173,46.452 C358.610173,46.452 361.256173,43.974 361.256173,40.278 C361.256173,36.624 358.778173,33.852 355.418173,33.852 C352.142173,33.852 349.538173,36.33 349.538173,40.278 C349.538173,43.89 351.932173,46.452 355.418173,46.452 Z M374.318173,26.88 C372.554173,26.88 371.168173,25.452 371.168173,23.73 C371.168173,22.05 372.554173,20.622 374.318173,20.622 C376.082173,20.622 377.510173,22.05 377.510173,23.73 C377.510173,25.452 376.082173,26.88 374.318173,26.88 Z M371.966173,50.4 L371.966173,29.904 L376.670173,29.904 L376.670173,50.4 L371.966173,50.4 Z" id="Otter.ai" fill="#05294B">
  </path>
 </g>
</svg>