<svg width="207" height="28" viewBox="0 0 207 28" fill="none" xmlns="http://www.w3.org/2000/svg">
<g clip-path="url(#clip0_6_2)">
<path d="M54.91 22.01H51.35V11.05H50.23L50.25 7.24001H54.94L54.92 22.01H54.91ZM50.58 3.85001C50.58 2.63001 51.31 2.01001 52.77 2.01001C54.23 2.01001 54.94 2.62001 54.94 3.85001C54.94 5.08001 54.22 5.63001 52.77 5.63001C51.32 5.63001 50.58 5.04001 50.58 3.85001Z" fill="#F6F7F7"></path>
<path d="M60.02 7.24002L60.85 13.12H60.98C61.15 11.26 61.72 9.81002 62.69 8.78002C63.66 7.75002 64.95 7.24002 66.54 7.24002C68.26 7.24002 69.59 7.80002 70.52 8.91002C71.45 10.02 71.92 11.59 71.92 13.63V22.02H68.36V14.05C68.36 12.9 68.06 12.01 67.47 11.38C66.88 10.75 66.04 10.43 64.96 10.43C63.7 10.43 62.72 10.86 62.02 11.72C61.33 12.58 60.98 13.79 60.98 15.35V22.04H57.42V7.24002H60.02Z" fill="#F6F7F7"></path>
<path d="M81.08 22.04C79.25 22.04 77.85 21.55 76.9 20.57C75.95 19.59 75.47 18.16 75.47 16.28V10.86H73.14V7.24001H75.85L75.39 3.54001H79.51L78.3 7.24001H84.15V10.86H79.03V16.31C79.03 17.12 79.25 17.74 79.68 18.16C80.11 18.58 80.74 18.8 81.55 18.8C82.16 18.8 83.02 18.65 84.13 18.35L84.3 21.65C83.48 21.91 82.4 22.05 81.07 22.05L81.08 22.04Z" fill="#F6F7F7"></path>
<path d="M88.72 21.17C87.55 20.59 86.66 19.74 86.03 18.63C85.41 17.52 85.09 16.19 85.09 14.65C85.09 13.11 85.38 11.78 85.98 10.67C86.57 9.56 87.41 8.71 88.51 8.13C89.61 7.55 90.9 7.25 92.38 7.25C94.56 7.25 96.28 7.84 97.53 9.02C98.78 10.2 99.4 11.83 99.4 13.92C99.4 14.5 99.34 14.97 99.23 15.3H88.71C88.82 16.41 89.27 17.28 90.04 17.91C90.82 18.54 91.82 18.86 93.04 18.86C93.64 18.86 94.29 18.77 95 18.59C95.71 18.41 96.35 18.16 96.92 17.84L97.11 21.09C96.54 21.39 95.87 21.63 95.09 21.8C94.31 21.97 93.56 22.05 92.82 22.05C91.25 22.05 89.88 21.76 88.72 21.17ZM96.01 13.91C95.95 12.78 95.61 11.9 94.98 11.25C94.35 10.61 93.52 10.29 92.49 10.29C91.46 10.29 90.54 10.65 89.85 11.36C89.16 12.08 88.78 13.05 88.71 14.3L96 13.9L96.01 13.91Z" fill="#F6F7F7"></path>
<path d="M103.47 7.24002L104.3 13.12H104.43C104.6 11.26 105.17 9.81002 106.14 8.78002C107.11 7.75002 108.4 7.24002 109.99 7.24002C111.71 7.24002 113.04 7.80002 113.97 8.91002C114.9 10.02 115.37 11.59 115.37 13.63V22.02H111.81V14.05C111.81 12.9 111.51 12.01 110.92 11.38C110.33 10.75 109.49 10.43 108.41 10.43C107.15 10.43 106.17 10.86 105.47 11.72C104.78 12.58 104.43 13.79 104.43 15.35V22.02H100.87V7.24002H103.47Z" fill="#F6F7F7"></path>
<path d="M124.53 22.04C122.7 22.04 121.3 21.55 120.35 20.57C119.4 19.59 118.92 18.16 118.92 16.28V10.86H116.59V7.24001H119.3L118.84 3.54001H122.96L121.75 7.24001H127.6V10.86H122.48V16.31C122.48 17.12 122.7 17.74 123.13 18.16C123.56 18.58 124.19 18.8 125 18.8C125.61 18.8 126.47 18.65 127.58 18.35L127.75 21.65C126.93 21.91 125.85 22.05 124.52 22.05L124.53 22.04Z" fill="#F6F7F7"></path>
<path d="M130.22 8.23002C131.28 7.57002 132.8 7.24002 134.8 7.24002C135.83 7.24002 136.81 7.33002 137.74 7.51002C138.67 7.69002 139.5 7.95002 140.22 8.29002L140.05 11.59C138.49 10.87 136.82 10.52 135.03 10.52C134.17 10.52 133.53 10.62 133.1 10.83C132.68 11.04 132.46 11.39 132.46 11.88C132.46 12.37 132.67 12.71 133.09 12.95C133.51 13.19 134.21 13.37 135.21 13.49C137.2 13.73 138.64 14.18 139.54 14.83C140.44 15.48 140.89 16.43 140.89 17.67C140.89 19.12 140.32 20.21 139.18 20.95C138.04 21.68 136.4 22.05 134.24 22.05C133.14 22.05 132.1 21.96 131.13 21.77C130.15 21.58 129.29 21.32 128.54 20.98L128.71 17.56C129.5 17.97 130.37 18.29 131.31 18.52C132.25 18.75 133.18 18.86 134.08 18.86C135.08 18.86 135.82 18.72 136.3 18.45C136.78 18.18 137.02 17.77 137.02 17.22C137.02 16.67 136.79 16.3 136.34 16.03C135.89 15.77 135.16 15.58 134.14 15.47C132.22 15.24 130.82 14.8 129.94 14.14C129.06 13.48 128.62 12.51 128.62 11.23C128.62 9.95002 129.15 8.90002 130.2 8.24002L130.22 8.23002Z" fill="#F6F7F7"></path>
<path d="M146.57 22.01H143.01V11.05H141.88V7.24001H146.57V22.01ZM142.24 3.85001C142.24 2.63001 142.97 2.01001 144.43 2.01001C145.89 2.01001 146.6 2.62001 146.6 3.85001C146.6 5.08001 145.88 5.63001 144.43 5.63001C142.98 5.63001 142.24 5.04001 142.24 3.85001Z" fill="#F6F7F7"></path>
<path d="M154.9 18.51C153.83 18.49 153.08 18.55 152.64 18.69C152.2 18.83 151.98 19.09 151.98 19.47C151.98 19.75 152.1 19.95 152.34 20.08C152.58 20.2 153.01 20.29 153.62 20.35L159.89 21C161.14 21.13 162.09 21.45 162.74 21.96C163.39 22.47 163.72 23.34 163.72 24.59C163.72 25.48 163.55 26.37 163.2 27.27H159.95C160.27 26.57 160.43 26 160.43 25.55C160.43 25.1 160.3 24.78 160.04 24.6C159.78 24.42 159.35 24.3 158.74 24.25L153.01 23.66C151.9 23.55 151.04 23.39 150.45 23.18C149.85 22.97 149.43 22.69 149.19 22.35C148.95 22 148.83 21.53 148.83 20.92C148.83 20.26 148.99 19.75 149.3 19.39C149.61 19.03 150.11 18.77 150.8 18.61C151.49 18.45 152.45 18.35 153.69 18.31V18.17C150.19 17.91 148.44 16.08 148.44 12.69C148.44 10.96 148.92 9.62001 149.88 8.67001C150.84 7.72001 152.17 7.24001 153.88 7.24001C155.02 7.24001 155.96 7.47001 156.71 7.93001C157.46 8.39001 158.02 8.97001 158.38 9.65001C158.74 10.34 158.96 11.04 159.03 11.75H159.2L159.85 5.39001H162.43V13.41C162.43 15.1 161.85 16.38 160.69 17.24C159.53 18.1 157.8 18.53 155.51 18.53L154.91 18.5L154.9 18.51ZM152.93 15.16C153.52 15.64 154.37 15.88 155.48 15.88C156.59 15.88 157.46 15.64 158.05 15.16C158.64 14.68 158.94 13.99 158.94 13.08C158.94 12.17 158.64 11.49 158.05 11.02C157.46 10.55 156.6 10.31 155.48 10.31C154.36 10.31 153.5 10.55 152.92 11.03C152.34 11.51 152.05 12.19 152.05 13.08C152.05 13.97 152.34 14.68 152.94 15.16H152.93Z" fill="#F6F7F7"></path>
<path d="M167.11 7.67002L167.94 13.12H168.06C168.23 11.26 168.8 9.81002 169.77 8.78002C170.74 7.75002 172.03 7.24002 173.62 7.24002C175.34 7.24002 176.67 7.80002 177.6 8.91002C178.53 10.02 179 11.59 179 13.63V22.02H175.44V14.05C175.44 12.9 175.14 12.01 174.55 11.38C173.96 10.75 173.12 10.43 172.04 10.43C170.78 10.43 169.8 10.86 169.1 11.72C168.41 12.58 168.06 13.79 168.06 15.35V22.02H164.5V7.67002H167.1H167.11Z" fill="#F6F7F7"></path>
<path d="M190.69 16.59H190.52C190.46 17.55 190.23 18.44 189.82 19.27C189.41 20.1 188.81 20.76 188.03 21.26C187.25 21.76 186.3 22.01 185.19 22.01C183.68 22.01 182.54 21.64 181.77 20.89C181.01 20.15 180.62 19.13 180.62 17.85C180.62 16.44 181.1 15.36 182.05 14.63C183 13.9 184.28 13.53 185.87 13.53C187.46 13.53 189.07 13.65 190.47 13.9L190.45 13.59C190.41 12.57 190.09 11.8 189.5 11.26C188.91 10.72 188.07 10.45 186.97 10.45C186.16 10.45 185.36 10.55 184.54 10.76C183.73 10.97 182.97 11.25 182.28 11.61L181.97 8.39001C182.72 8.01001 183.57 7.73001 184.51 7.53001C185.45 7.33001 186.41 7.23001 187.38 7.23001C189.6 7.23001 191.26 7.76001 192.35 8.83001C193.44 9.90001 193.99 11.37 193.99 13.25V21.9H191.41L190.68 16.58L190.69 16.59ZM184.9 18.54C185.34 18.9 185.94 19.08 186.69 19.08C187.8 19.08 188.72 18.73 189.45 18.02C190.18 17.31 190.54 16.26 190.52 14.87L190.54 14.98L190.52 14.84C189.52 14.75 188.51 14.7 187.48 14.7C186.45 14.7 185.62 14.89 185.06 15.28C184.5 15.67 184.23 16.24 184.23 16.99C184.23 17.67 184.45 18.19 184.9 18.54Z" fill="#F6F7F7"></path>
<path d="M199.98 0.600006V21.91H196.42V0.600006H199.98Z" fill="#F6F7F7"></path>
<path d="M202.5 21.37C202.08 21.01 201.87 20.51 201.87 19.87C201.87 19.23 202.08 18.76 202.5 18.4C202.92 18.04 203.48 17.86 204.19 17.86C204.9 17.86 205.46 18.04 205.87 18.4C206.28 18.76 206.48 19.25 206.48 19.87C206.48 20.49 206.27 21.01 205.87 21.37C205.46 21.73 204.9 21.91 204.19 21.91C203.48 21.91 202.92 21.73 202.5 21.37Z" fill="#F6F7F7"></path>
<path d="M6.70999 12.9C6.70999 12.53 6.70999 12.2 6.70999 11.87C6.70999 10.36 6.71999 8.86001 6.70999 7.35001C6.70999 6.95001 6.81999 6.81001 7.22999 6.84001C11.33 7.08001 14.69 8.78001 17.2 12.03C17.91 12.96 18.42 14.05 18.99 15.08C19.32 15.68 19.8 15.99 20.48 15.97C21.1 15.94 21.65 15.51 21.83 14.89C21.9 14.65 21.9 14.39 21.9 14.15C21.9 13.06 21.85 11.97 22.18 10.91C23.1 7.95001 25.04 6.06001 28.09 5.47001C31.68 4.79001 34.99 6.60001 36.47 9.94001C37.67 12.63 39.73 14.14 42.66 14.42C43.03 14.46 43.15 14.57 43.15 14.95C43.13 16.64 43.15 18.32 43.15 20.01C43.15 20.54 43.15 20.56 42.62 20.53C37.16 20.12 33.27 17.42 30.96 12.47C30.43 11.34 29.2 11.06 28.39 11.91C28.07 12.24 28 12.66 27.97 13.1C27.92 14.1 27.95 15.12 27.78 16.09C27.21 19.29 24.2 21.87 20.94 22.04C17.62 22.22 14.77 20.48 13.43 17.44C12.41 15.13 10.7 13.66 8.22998 13.09C7.87998 13.01 7.50999 12.99 7.14999 12.94C6.80999 12.89 6.71999 13.04 6.71999 13.36C6.72999 15.07 6.71999 16.79 6.72999 18.5C6.72999 18.89 6.62998 19.03 6.21999 19.03C4.52998 19.01 2.84999 19.01 1.15999 19.03C0.779985 19.03 0.649985 18.93 0.659985 18.53C0.679985 16.82 0.679985 15.1 0.659985 13.39C0.659985 13.02 0.779985 12.92 1.13999 12.92C2.84999 12.94 4.56999 12.92 6.27999 12.92C6.40999 12.92 6.54999 12.91 6.72999 12.9H6.70999Z" fill="#F6F7F7"></path>
</g>
<defs>
<clipPath id="clip0_6_2">
<rect width="206.93" height="27.87" fill="white"></rect>
</clipPath>
</defs>
</svg>