<svg width="178" height="28" viewBox="0 0 334 53" fill="none" xmlns="http://www.w3.org/2000/svg">
<path fill-rule="evenodd" clip-rule="evenodd" d="M56.9949 37.5524C60.5291 41.0865 65.2932 42.6269 69.9081 42.1983L78.0946 50.3908C68.6907 54.1423 57.5477 52.2293 49.9326 44.6082C48.9512 43.6206 48.0568 42.5834 47.268 41.4902C43.9449 36.9251 42.2803 31.5338 42.2803 26.1364C42.2803 17.211 35.0441 9.98126 26.1247 9.98126C17.2115 9.98126 9.97534 17.2172 9.97534 26.1364C9.97534 35.0555 17.2115 42.2853 26.1247 42.2853C31.1869 42.2853 35.6901 39.9499 38.6529 36.3102C39.6591 39.248 41.1064 42.043 42.9697 44.602C43.1934 44.9063 43.417 45.2045 43.653 45.5026C39.0194 49.6951 32.8764 52.2603 26.1309 52.2603V52.2665C11.7021 52.2665 0 40.5586 0 26.1364C0 11.7017 11.7021 0 26.1309 0C34.8205 0 42.5225 4.24219 47.2742 10.7763C50.3798 15.0371 52.2246 20.2793 52.2618 25.95V26.3165C52.3053 30.391 53.883 34.4406 56.9949 37.5524ZM86.89 7.66456C95.8902 16.6582 96.9523 30.5836 90.0764 40.7449L96.12 46.7884L90.8032 52.1051C89.8404 53.0678 88.2814 53.0678 87.3186 52.1051L70.5792 35.3723L72.486 33.4655C75.3308 30.6208 79.952 30.6208 82.7968 33.4655C85.8838 27.3973 84.8962 19.7887 79.8216 14.7142C76.6725 11.5589 72.5357 9.9813 68.4052 9.9813C64.2747 9.9813 60.138 11.5589 56.9889 14.7142C56.5976 15.1117 56.2249 15.5216 55.8833 15.9502C54.877 13.0061 53.4298 10.2111 51.5664 7.65213C51.4258 7.46077 51.2803 7.27678 51.1345 7.09244C51.0484 6.98359 50.9623 6.87462 50.877 6.76394C55.846 2.26089 62.1256 0.0124625 68.4114 0.0124625C75.101 0.00625134 81.7906 2.56523 86.89 7.66456Z" fill="url(#paint0_linear)"/>
<path d="M124.511 45.5632L127.452 36.5287H141.748L144.689 45.5632H153.665L140.007 5.94291H129.212L115.535 45.5632H124.511ZM129.58 29.9898L134.455 14.9968H134.764L139.64 29.9898H129.58Z" fill="#333333"/>
<path d="M166.212 46.0469C171.009 46.0469 173.505 43.2804 174.646 40.8041H174.995V45.5632H183.12V5.94291H174.898V20.8392H174.646C173.544 18.421 171.164 15.4611 166.192 15.4611C159.673 15.4611 154.159 20.5297 154.159 30.7443C154.159 40.6881 159.44 46.0469 166.212 46.0469ZM168.823 39.4886C164.78 39.4886 162.574 35.8903 162.574 30.7056C162.574 25.5596 164.741 22.0193 168.823 22.0193C172.828 22.0193 175.072 25.4048 175.072 30.7056C175.072 36.0064 172.789 39.4886 168.823 39.4886Z" fill="#333333"/>
<path d="M224.825 25.7531C224.825 12.7913 216.777 5.40123 206.272 5.40123C195.709 5.40123 187.72 12.7913 187.72 25.7531C187.72 38.6567 195.709 46.1049 206.272 46.1049C208.749 46.1049 211.089 45.6986 213.217 44.8861L216.41 48.8133H224.225L218.557 41.694C222.426 38.2311 224.825 32.8143 224.825 25.7531ZM203.37 31.789L208.439 38.4826C207.762 38.6181 207.027 38.6954 206.272 38.6954C200.178 38.6954 196.212 34.1492 196.212 25.7531C196.212 17.357 200.178 12.8107 206.272 12.8107C212.347 12.8107 216.332 17.357 216.332 25.7531C216.332 30.0672 215.268 33.3753 213.43 35.5614L210.49 31.789H203.37Z" fill="#333333"/>
<path d="M248.297 32.911C248.316 36.8963 245.588 38.9856 242.628 38.9856C239.514 38.9856 237.502 36.7995 237.482 33.2979V15.848H229.241V34.7682C229.26 41.7134 233.323 45.9501 239.301 45.9501C243.77 45.9501 246.981 43.648 248.316 40.1657H248.626V45.5632H256.538V15.848H248.297V32.911Z" fill="#333333"/>
<path d="M261.496 45.5632H269.737V15.848H261.496V45.5632ZM265.636 12.0175C268.093 12.0175 270.105 10.141 270.105 7.8388C270.105 5.55599 268.093 3.67944 265.636 3.67944C263.198 3.67944 261.186 5.55599 261.186 7.8388C261.186 10.141 263.198 12.0175 265.636 12.0175Z" fill="#333333"/>
<path d="M288.131 46.1436C296.043 46.1436 301.015 41.5006 301.402 34.6715H293.625C293.141 37.8442 291.052 39.624 288.227 39.624C284.378 39.624 281.882 36.3933 281.882 30.7056C281.882 25.0953 284.397 21.8839 288.227 21.8839C291.245 21.8839 293.18 23.8765 293.625 26.8364H301.402C301.054 19.9687 295.85 15.4611 288.092 15.4611C279.077 15.4611 273.505 21.7098 273.505 30.8217C273.505 39.8562 278.98 46.1436 288.131 46.1436Z" fill="#333333"/>
<path d="M305.044 45.5632H313.285V36.1224L315.51 33.5881L323.616 45.5632H333.27L321.682 28.713L332.709 15.848H323.249L313.73 27.1266H313.285V5.94291H305.044V45.5632Z" fill="#333333"/>
<defs>
<linearGradient id="paint0_linear" x1="0" y1="52.8271" x2="96.0795" y2="52.8271" gradientUnits="userSpaceOnUse">
<stop stop-color="#44AC6B"/>
<stop offset="1" stop-color="#4A90E2"/>
</linearGradient>
</defs>
</svg>

