<svg width="125" height="31" viewBox="0 0 125 31" fill="none" xmlns="http://www.w3.org/2000/svg">
<g id="Group 11337">
<g id="Group 11341">
<path id="Vector" d="M64.8095 20.5837V3.65039H61.0741V20.8246C61.0741 24.2611 63.8426 27.0466 67.2581 27.0466H68.9047V23.2882H67.4976C66.013 23.2882 64.8095 22.0774 64.8095 20.5837Z" fill="#0D1D26"/>
<path id="Vector_2" d="M121.265 3.65039V10.4733C119.709 9.30148 117.779 8.60659 115.686 8.60659C110.541 8.60659 106.371 12.8019 106.371 17.9781C106.371 23.1542 110.541 27.3496 115.686 27.3496C120.83 27.3496 125 23.1542 125 17.9781V3.65039H121.265ZM115.686 23.5912C112.604 23.5912 110.106 21.0776 110.106 17.9781C110.106 14.8786 112.604 12.364 115.686 12.364C118.767 12.364 121.255 14.8676 121.265 17.9601V17.9781C121.265 21.0786 118.766 23.5912 115.685 23.5912H115.686Z" fill="#0D1D26"/>
<path id="Vector_3" d="M79.2891 8.60645C74.1446 8.60645 69.9749 12.8018 69.9749 17.9779C69.9749 23.1541 74.1446 27.3494 79.2891 27.3494C84.4337 27.3494 88.6034 23.1541 88.6034 17.9779C88.6034 12.8018 84.4337 8.60645 79.2891 8.60645ZM79.2891 23.591C76.2076 23.591 73.7093 21.0774 73.7093 17.9779C73.7093 14.8784 76.2076 12.3638 79.2891 12.3638C82.3707 12.3638 84.869 14.8774 84.869 17.9779C84.869 21.0784 82.3707 23.591 79.2891 23.591Z" fill="#0D1D26"/>
<path id="Vector_4" d="M51.5191 12.3648C53.2691 12.3648 54.8292 13.1757 55.8528 14.4435L58.5011 11.7789C56.7949 9.83522 54.2996 8.60742 51.5191 8.60742C46.3745 8.60742 42.2048 12.8027 42.2048 17.9789C42.2048 23.1551 46.3745 27.3504 51.5191 27.3504C54.2996 27.3504 56.7939 26.1226 58.5011 24.1789L55.8528 21.5143C54.8302 22.7821 53.2691 23.593 51.5191 23.593C48.4375 23.593 45.9393 21.0794 45.9393 17.9789C45.9393 14.8784 48.4375 12.3648 51.5191 12.3648Z" fill="#0D1D26"/>
<path id="Vector_5" d="M104.748 12.327C105.086 11.9321 105.291 11.4182 105.291 10.8563C105.291 9.60947 104.287 8.59863 103.047 8.59863H90.3912V12.357H99.3498C99.4511 12.357 99.5058 12.477 99.4392 12.554C99.4392 12.554 90.2392 23.3133 90.2352 23.3183C89.8974 23.7132 89.6917 24.2271 89.6917 24.789C89.6917 26.0358 90.6963 27.0467 91.9355 27.0467C91.9375 27.0467 91.9395 27.0467 91.9415 27.0467H104.592V23.2883H95.6471C95.5457 23.2883 95.4911 23.1693 95.5577 23.0913C95.5577 23.0913 104.744 12.332 104.748 12.327Z" fill="#0D1D26"/>
</g>
<g id="Group 11342">
<path id="Vector_6" d="M17.5554 8.24269C18.8253 5.77409 19.5875 3.1975 19.9671 1.06685C20.0039 0.85788 19.8787 0.656912 19.677 0.597922C17.1241 -0.155957 14.1737 -0.19695 11.577 0.474942C11.2501 0.559928 11.1627 0.98286 11.426 1.19483C13.5605 2.90755 15.5679 5.48213 16.822 8.22969C16.9641 8.54064 17.3993 8.54564 17.5554 8.24269Z" fill="#09D4C8"/>
<path id="Vector_7" d="M13.2555 22.7584C11.9855 25.227 11.2233 27.8036 10.8437 29.9343C10.8069 30.1432 10.9321 30.3442 11.1338 30.4032C13.6867 31.1571 16.6371 31.1981 19.2338 30.5262C19.5607 30.4412 19.6482 30.0183 19.3848 29.8063C17.2503 28.0936 15.2429 25.519 13.9888 22.7714C13.8467 22.4605 13.4115 22.4555 13.2555 22.7584Z" fill="#09D4C8"/>
<path id="Vector_8" d="M8.19237 13.3368C5.73884 12.0591 3.17798 11.2922 1.06033 10.9102C0.852643 10.8732 0.652902 10.9992 0.594272 11.2022C-0.155005 13.7708 -0.195748 16.7393 0.472042 19.3519C0.55651 19.6808 0.97686 19.7688 1.18753 19.5039C2.8898 17.3562 5.44867 15.3365 8.17945 14.0747C8.48851 13.9318 8.49348 13.4938 8.19237 13.3368Z" fill="#1E62E5"/>
<path id="Vector_9" d="M22.6194 17.663C25.0729 18.9408 27.6338 19.7077 29.7514 20.0896C29.9591 20.1266 30.1588 20.0007 30.2175 19.7977C30.9667 17.2291 31.0075 14.2606 30.3397 11.648C30.2552 11.3191 29.8349 11.2311 29.6242 11.496C27.9219 13.6437 25.3631 15.6634 22.6323 16.9252C22.3232 17.0681 22.3183 17.5061 22.6194 17.663Z" fill="#1E62E5"/>
<path id="Vector_10" d="M11.8254 8.83857C10.9877 6.19 9.71672 3.82538 8.48747 2.04867C8.36723 1.87469 8.13668 1.8217 7.95284 1.92369C5.61756 3.20748 3.50289 5.27715 2.13949 7.59977C1.96757 7.89172 2.20309 8.25366 2.53897 8.21567C5.25187 7.90872 8.48151 8.30066 11.2987 9.35149C11.6177 9.47047 11.9288 9.16452 11.8264 8.83857H11.8254Z" fill="#14A6F8"/>
<path id="Vector_11" d="M18.9863 22.1612C19.824 24.8098 21.095 27.1744 22.3243 28.9511C22.4445 29.1251 22.675 29.1781 22.8589 29.0761C25.1942 27.7923 27.3088 25.7226 28.6722 23.4C28.8442 23.1081 28.6086 22.7461 28.2728 22.7841C25.5599 23.0911 22.3302 22.6991 19.513 21.6483C19.194 21.5293 18.883 21.8353 18.9853 22.1612H18.9863Z" fill="#14A6F8"/>
<path id="Vector_12" d="M8.78457 19.103C6.15217 19.9459 3.80198 21.2247 2.03611 22.4615C1.8632 22.5824 1.81054 22.8144 1.9119 22.9994C3.18785 25.349 5.24489 27.4767 7.55333 28.8484C7.8435 29.0214 8.20324 28.7844 8.16547 28.4465C7.8604 25.7169 8.24994 22.4675 9.29436 19.6329C9.41261 19.312 9.10853 18.999 8.78457 19.102V19.103Z" fill="#14A6F8"/>
<path id="Vector_13" d="M22.0262 11.8982C24.6586 11.0553 27.0088 9.77655 28.7747 8.53975C28.9476 8.41877 29.0002 8.18681 28.8989 8.00184C27.6229 5.65222 25.5659 3.52456 23.2574 2.15278C22.9673 1.97981 22.6075 2.21677 22.6453 2.55472C22.9504 5.28428 22.5608 8.53375 21.5164 11.3683C21.3982 11.6892 21.7022 12.0022 22.0262 11.8992V11.8982Z" fill="#14A6F8"/>
</g>
</g>
</svg>
