<?xml version="1.0" encoding="UTF-8"?>
<svg width="351.76" height="40.497" version="1.1" xml:space="preserve" xmlns="http://www.w3.org/2000/svg" xmlns:cc="http://creativecommons.org/ns#" xmlns:dc="http://purl.org/dc/elements/1.1/" xmlns:rdf="http://www.w3.org/1999/02/22-rdf-syntax-ns#"><metadata><rdf:RDF><cc:Work rdf:about=""><dc:format>image/svg+xml</dc:format><dc:type rdf:resource="http://purl.org/dc/dcmitype/StillImage"/><dc:title/></cc:Work></rdf:RDF></metadata><g fill-rule="evenodd"><path d="m256.72 39.52h12.012v-39.52h-12.012z"/><path d="m312.9 0h8.1808l-2.7781 10.77h-5.948l0.54537-10.77"/><path d="m335.18 5.854c7.9913 0 15.499 2.0164 15.534 9.8609h-11.407c0-2.7026-1.5772-3.9309-4.2402-3.9309-1.5798 0-3.7153 0.65625-3.7153 3.1328 2e-3 4.1096 6.5011 3.2877 12.019 4.9259 4.9571 1.4702 8.3933 4.4278 8.3933 9.2036 0 7.3163-5.7406 11.364-16.584 11.407-11.371 0.0451-15.65-4.0538-15.686-11.407h11.558c0 2.7756 1.7258 4.4278 4.1633 4.4278 2.919 0 4.2427-1.1082 4.2427-3.1714 0-4.296-7.9682-4.1849-12.667-5.7222-3.1955-1.0472-6.0991-3.4157-6.0991-8.4447 0-4.2018 3.152-10.282 14.487-10.282"/><path d="m89.166 27.543c-1.9933 7.8566-8.5108 12.949-16.639 12.951-9.8138 0-17.279-7.4264-17.269-18.173 7e-3 -10.733 6.6432-18.16 17.269-18.17 8.8106-7e-3 14.877 5.111 16.698 12.978l-11.241 1e-3c-0.86212-2.3644-2.5185-4.2087-5.4572-4.2107-4.9599-1e-3 -6.2681 5.2559-6.266 9.4018 1e-3 4.1488 1.3061 9.4026 6.266 9.4026 2.9266 0 4.5799-1.8282 5.4451-4.1797l11.194-1e-3"/><path d="m6.2942 0.00385h14.352l6.2473 23.346 6.2471-23.346h14.362l6.2752 40.491h-11.841l-3.1276-23.663-6.4714 23.663h-10.888l-6.4703-23.663-3.1294 23.663h-11.849l6.2942-40.491"/><path d="m190.38 20.16v19.367h-11.876v-34.527h11.876v2.6975c3.006-2.3423 5.7227-3.5465 11.886-3.5465 6.6931 0 12.085 4.4729 12.088 9.1686v26.207h-11.96v-19.005c5e-3 -3.1566-2.8216-5.7301-5.8994-5.7301-3.9585 0-5.9275 3.5027-6.1144 5.3681"/><path d="m296.33 8.4245v-8.4245h12.011v39.52h-12.011v-1.9176c-1.5773 1.4244-3.6461 2.8795-8.8234 2.8795-5.8251 0-15.079-3.2364-15.086-17.14-7e-3 -13.884 9.251-17.487 15.837-17.487 4.783 0 7.0413 1.6512 8.0732 2.5705zm-12.464 14.917c0 5.4039 2.5144 8.8567 6.6444 8.8567 2.476 0 4.5474-1.0792 5.8251-3.3307v-10.367c-0.64012-2.2886-2.8626-3.9759-5.8251-3.9767-4.1377-2e-3 -6.6444 3.4144-6.6444 8.8175"/><path d="m138.63 22.326c0.01-10.733 6.9704-18.162 18.117-18.172 11.151-0.01 18.11 7.4392 18.118 18.172 0.01 10.745-6.9696 18.17-18.118 18.17-11.136 1e-3 -18.126-7.4254-18.117-18.17zm25 0c3e-3 -4.1477-1.4339-9.4026-6.8826-9.4026-5.4474-2e-3 -6.8838 5.2549-6.8828 9.4026 2e-3 4.147 1.4354 9.4018 6.8828 9.4018 5.4487 0 6.8826-5.2549 6.8826-9.4018"/><path d="m93.352 0.00385h20.637c12.911 0 21.711 8.0197 21.711 20.245 0 12.224-8.7976 20.246-21.711 20.246h-20.637zm13.652 30.919h6.2391c4.0428 0 8.9637-2.4652 8.9637-10.674 0-8.1987-4.921-10.673-8.9637-10.673h-6.2391v21.347"/><path d="m235.77 4.1557c8.5238-7e-3 15.55 3.1276 16.098 10.01v25.356h-12.021v-3.4185c-2.919 2.5013-5.8277 4.3779-11.082 4.3779-6.1196 0-11.051-4.838-11.051-10.509 0-5.6722 3.4925-11.973 17.475-11.97 3.6052 7.7e-4 4.655-1.4175 4.6575-3.1066 5e-3 -2.0745-2.3864-3.2316-4.3887-3.2316s-4.2734 0.83395-4.2734 3.0024h-11.261c0-5.0879 3.4208-10.498 15.847-10.51zm-0.66573 19.456c-2.773 0-5.3386 1.4802-5.3386 4.3157 0 1.8364 1.0856 3.4216 3.9201 3.4208 2.7116 0 5.6049-1.6085 6.1605-4.943v-3.1586c-0.91665 0.50109-2.9906 0.36512-4.742 0.36512"/></g></svg>
