<svg xmlns="http://www.w3.org/2000/svg" width="589" height="48" fill="#FFF"><path d="M.316 1.01h30.316c7.073 0 11.873 1.769 14.905 5.053 2.779 2.526 4.042 6.063 4.042 10.61v.253c0 7.074-3.79 11.621-9.347 13.895l10.863 15.916H36.442l-9.095-13.895H21.79v13.895H9.158V8.842zm29.81 21.727c4.295 0 6.821-2.021 6.821-5.306v-.252c0-3.537-2.526-5.305-6.82-5.305H21.79v10.863zm22.484 1.01C52.61 10.611 63.222 0 77.117 0c14.147 0 24.505 10.358 24.505 23.495v.252c0 13.137-10.61 23.748-24.505 23.748-13.895-.253-24.505-10.61-24.505-23.748m36.127 0c0-6.568-4.8-12.379-11.621-12.379s-11.621 5.558-11.621 12.127v.252c0 6.569 4.8 12.38 11.62 12.38 7.074-.253 11.622-5.811 11.622-12.38m16.419 0c0-13.39 10.105-23.747 24-23.747 9.347 0 15.158 3.79 19.2 9.6l-9.6 7.326c-2.526-3.284-5.558-5.305-9.853-5.305-6.316 0-10.863 5.305-10.863 12.126V24c0 6.821 4.547 12.126 10.863 12.126 4.8 0 7.579-2.273 10.358-5.558l9.6 6.821c-4.295 5.811-10.105 10.358-20.21 10.358-13.137-.505-23.495-10.358-23.495-24M153.411 1.01h12.631v18.443L181.705 1.01h14.906l-17.179 19.453 17.684 26.021h-15.158l-11.369-16.926-4.547 5.052v11.874h-12.631zm47.747 0h36.631v10.61h-24.252v6.822h21.979v10.105h-21.979v7.074h24.505v10.863h-36.884zm53.81 10.864h-13.642V1.01h39.916v10.864H267.6v34.61h-12.632zm33.853 34.61V1.01h3.284V43.2h26.779v3.284zm77.558 0-5.81-12.632H333.79l-5.811 12.632h-3.537L345.663.758h3.284l21.222 45.726zm-19.2-42.19-12.126 26.274h24zm71.242 42.443h-2.779L402.253 7.325l-13.39 39.41h-2.526L369.663 1.01h3.79l14.4 40.421L400.989.758h2.779l13.39 40.673 14.147-40.42h3.537zm42.695-18.442v18.19h-3.284v-18.19L438.126 1.01h4.295l16.926 24.253L476.526 1.01h4.042zm26.526 18.189V1.01h32.59v3.032h-29.053v17.937H517.2v3.031h-26.021V43.2h29.305v3.284zm75.79 0-14.4-18.947h-14.906v18.947h-3.284V1.01h19.2c9.853 0 16.169 5.306 16.169 12.885v.252c0 7.58-5.558 11.874-13.39 12.884l14.905 19.453zm-.758-32.59c0-6.063-4.8-9.852-13.137-9.852h-15.411v20.463h15.411c7.326 0 13.137-3.79 13.137-10.61M580.246.916q1.973 0 3.564.918a6.63 6.63 0 0 1 2.532 2.536q.914 1.597.914 3.555.001 1.957-.934 3.594a6.93 6.93 0 0 1-2.549 2.556q-1.614.939-3.568.939-1.95 0-3.564-.939a6.97 6.97 0 0 1-2.529-2.556q-.916-1.617-.915-3.554 0-1.938.915-3.555a6.9 6.9 0 0 1 2.549-2.556q1.614-.938 3.585-.938m-.041 13.2q1.713 0 3.108-.82a5.9 5.9 0 0 0 2.19-2.236q.819-1.418.819-3.135 0-1.718-.799-3.116a5.65 5.65 0 0 0-2.17-2.196q-1.376-.8-3.107-.799-1.713 0-3.125.819a5.9 5.9 0 0 0-2.193 2.236q-.796 1.398-.796 3.096 0 1.697.796 3.115a5.96 5.96 0 0 0 2.193 2.216c.927.546 1.958.82 3.084.82m3.605-7.43q.001.9-.437 1.538-.439.639-1.235.919l1.814 2.815h-1.374l-1.655-2.556h-2.17v2.556h-1.354V3.971h3.185q1.495 0 2.35.739.878.738.876 1.977m-3.324 1.598q.956 0 1.473-.42.538-.419.538-1.177 0-.759-.538-1.159-.517-.42-1.473-.419h-1.753v3.175z"/></svg>
