<svg xmlns:dc="http://purl.org/dc/elements/1.1/" xmlns:cc="http://creativecommons.org/ns#" xmlns:rdf="http://www.w3.org/1999/02/22-rdf-syntax-ns#" xmlns:svg="http://www.w3.org/2000/svg" xmlns="http://www.w3.org/2000/svg" viewBox="0 0 197.46667 72" height="72" width="197.46667" xml:space="preserve" id="svg2" version="1.1" xmlns:xlink="http://www.w3.org/1999/xlink">
 <metadata id="metadata8">
  <rdf:RDF>
   <cc:Work rdf:about="">
    <dc:format>
     image/svg+xml
    </dc:format>
    <dc:type rdf:resource="http://purl.org/dc/dcmitype/StillImage">
    </dc:type>
   </cc:Work>
  </rdf:RDF>
 </metadata>
 <defs id="defs6">
 </defs>
 <g transform="matrix(1.3333333,0,0,-1.3333333,0,72)" id="g10">
  <g transform="scale(0.1)" id="g12">
   <path id="path14" style="fill:#211c1d;fill-opacity:1;fill-rule:nonzero;stroke:none" d="m 175,343.969 h 79.355 V 153.941 h 40.004 v 190.028 h 79.352 v 40.902 H 175 v -40.902">
   </path>
   <path id="path16" style="fill:#211c1d;fill-opacity:1;fill-rule:nonzero;stroke:none" d="m 595.348,242.555 c 0,-19.864 -4.825,-33.391 -14.739,-41.371 -9.168,-7.379 -23.25,-10.817 -44.32,-10.817 -25.934,0 -43.5,4.965 -53.715,15.176 -10.496,10.492 -11.304,21.957 -11.304,37.012 V 384.871 H 430.668 V 242.555 c 0,-19.164 0.996,-36.496 13.254,-54.559 7.851,-11.586 32.074,-38.531 87.301,-38.531 23.132,0 65.3,4.402 87.738,33.844 15.488,20.011 16.684,37.175 16.684,59.246 V 384.871 H 595.348 V 242.555">
   </path>
   <path id="path18" style="fill:#211c1d;fill-opacity:1;fill-rule:nonzero;stroke:none" d="m 836.938,278.617 h -95.153 v 65.653 h 95.153 c 22.359,0 33.699,-13.43 33.699,-31.633 0,-13.598 -5.848,-34.02 -33.699,-34.02 m 74.296,32.235 c 0,42.414 -29.16,74.019 -74.296,74.019 H 700.895 v -230.93 h 40.89 v 83.778 h 76.25 l 46.664,-83.778 h 46.274 l -49.004,86.512 c 31.394,9.492 49.265,37.555 49.265,70.399">
   </path>
   <path id="path20" style="fill:#211c1d;fill-opacity:1;fill-rule:nonzero;stroke:none" d="m 1138.49,213.137 c -15.66,-15.071 -36.5,-23.371 -58.7,-23.371 -21.62,0 -42.99,8.207 -58.63,22.507 -16.24,14.856 -25.183,34.934 -25.183,56.536 0,22.89 8.523,43.691 24.003,58.586 15.31,14.73 36.45,22.839 59.52,22.839 22.33,0 43.21,-7.921 58.79,-22.304 15.94,-14.715 24.72,-34.965 24.72,-57.032 0,-22.031 -8.7,-42.546 -24.52,-57.761 m -58.7,178.297 c -68.44,0 -124.114,-53.27 -124.114,-118.75 0,-69.598 54.384,-124.114 123.824,-124.114 68.44,0 124.11,54.071 124.11,120.535 0,33.157 -12.91,64.055 -36.35,87.012 -23.25,22.774 -54.32,35.317 -87.47,35.317">
   </path>
   <path id="path22" style="fill:#211c1d;fill-opacity:1;fill-rule:nonzero;stroke:none" d="m 1266.45,57.2813 v 0 c -0.16,-0.2071 0,0 -0.16,-0.2071 -1.24,-1.6015 -2.9,-3.5429 -4.37,-4.9609 -8.2,-7.9024 -19.22,-12.2344 -31.06,-12.2344 -0.1,0 -0.19,0.0039 -0.28,0.0039 H 39.8789 V 500.121 h 1135.8311 23.34 31.53 c 0.09,0 0.18,0.012 0.28,0.012 11.84,0 22.86,-4.336 31.06,-12.242 1.47,-1.414 3.13,-3.36 4.37,-4.961 0.16,-0.203 0,0 0.16,-0.211 v 0 L 1317.02,417.191 1430.63,270 Z m 40.39,438.3787 v 0 l -9.04,11.703 c -0.07,0.11 -0.14,0.219 -0.23,0.328 -2.42,3.145 -5.1,6.137 -8.01,8.946 -15.66,15.062 -36.51,23.363 -58.7,23.363 -0.1,0 -0.2,-0.016 -0.3,-0.016 V 540 H 1199.05 1175.71 0 V 0 h 1230.56 v 0.0195313 c 0.1,0 0.2,-0.0195313 0.3,-0.0195313 22.19,0 43.04,8.30469 58.7,23.3672 2.91,2.8086 5.59,5.8047 8.01,8.9453 0.09,0.1094 0.16,0.2227 0.23,0.3281 L 1481.01,270 1306.84,495.66">
   </path>
  </g>
 </g>
</svg>