<svg width="112" height="19" viewBox="0 0 112 19" fill="none" xmlns="http://www.w3.org/2000/svg">
  <path d="M11.372 1.70417C13.3903 -0.314151 16.6658 -0.314151 18.6841 1.70417L30.4795 13.4949L26.7327 17.2418C24.7144 19.2602 21.4389 19.2602 19.4207 17.2418L11.2935 9.11451C11.1511 8.9721 10.9988 8.83951 10.8417 8.71674C10.1689 8.13236 9.41268 7.65111 8.58278 7.30735C7.86091 7.0078 7.11449 6.81628 6.34842 6.72788L11.372 1.70417Z" fill="#1A1618"/>
  <path d="M0.593078 16.9414C0.858254 17.57 1.24129 18.1397 1.72253 18.6209L9.02963 11.3137C8.54838 10.8275 7.97874 10.4445 7.35017 10.1842C6.72652 9.92397 6.05375 9.78646 5.37117 9.78646C4.68858 9.78646 4.01582 9.91905 3.38725 10.1793C2.75869 10.4347 2.18905 10.8177 1.7078 11.299C1.23147 11.7802 0.848433 12.3499 0.588167 12.9785C0.327901 13.607 0.195312 14.2798 0.195312 14.9624C0.195312 15.645 0.332812 16.3178 0.593078 16.9414Z" fill="#1A1618"/>
  <path fill-rule="evenodd" clip-rule="evenodd" d="M48.799 0.479492C49.4451 0.479492 50.0912 0.570067 50.6985 0.790035H50.7114C53.0114 1.59227 54.3164 3.20968 54.5232 5.62932C54.717 7.99721 53.8771 9.89929 51.7709 11.1673C51.7246 11.1952 51.6799 11.223 51.6334 11.252L51.6332 11.2521C51.55 11.304 51.4605 11.3598 51.3445 11.4261L55.9345 18.4651L51.9999 18.4521L47.7653 11.9437H44.4446V18.4521H40.9688L40.9817 0.492431C40.9817 0.492431 46.3311 0.479492 48.799 0.479492ZM44.4704 3.57198V8.79945L48.8249 8.77357C50.2708 8.77357 51.1119 7.47964 51.0732 6.10808C51.0344 4.73651 50.2423 3.58492 48.8249 3.58492L44.4704 3.57198Z" fill="#1A1618"/>
  <path fill-rule="evenodd" clip-rule="evenodd" d="M108.534 14.5315L110.472 16.6406C109.477 17.5852 108.34 18.2063 107.022 18.5168C103.714 19.3061 100.471 18.064 98.8948 15.3985C96.1813 10.805 99.3729 5.08586 104.722 4.96941C109.051 4.8659 111.945 8.0619 111.39 12.3189C111.351 12.5648 111.214 13.0351 111.116 13.2794H101.608C102.134 15.4962 105.549 16.7442 108.534 14.5315ZM101.608 10.4873L108.09 10.4946C108.025 8.94194 106.88 7.97132 105.149 7.86781C103.456 7.76429 101.828 8.90876 101.608 10.4873Z" fill="#1A1618"/>
  <path fill-rule="evenodd" clip-rule="evenodd" d="M70.6618 11.866C70.6876 7.95838 67.5995 4.95647 63.568 4.95647C59.5495 4.96941 56.5259 7.90663 56.5259 11.8272C56.513 15.7478 59.5237 18.7239 63.5293 18.7368C67.5736 18.7497 70.636 15.7866 70.6618 11.866ZM63.5551 8.20423C65.6354 8.19129 67.2506 9.78282 67.2506 11.8402C67.2506 13.8975 65.6096 15.489 63.568 15.489C61.5265 15.489 59.963 13.9105 59.9372 11.8531C59.9113 9.82164 61.5136 8.21717 63.5551 8.20423Z" fill="#1A1618"/>
  <path d="M72.9747 5.25408H76.3084L76.3859 13.0306C76.3859 14.7373 77.5101 15.6314 79.2286 15.5279C80.6112 15.4502 81.5028 14.5057 81.5544 12.8753C81.619 10.6109 81.6061 5.26702 81.6061 5.26702H84.9915C84.9915 5.26702 85.0561 10.5721 84.9527 13.1341C84.7977 16.4724 82.5235 18.6462 79.2545 18.7239C75.7399 18.8015 72.9747 16.4582 72.9747 13.4446V5.25408Z" fill="#1A1618"/>
  <path d="M96.485 18.4392V15.3079L94.7923 15.4632C93.4226 15.5408 92.7766 14.9715 92.7507 13.6129V8.37246H96.1878V5.22821H92.7507V1.57934H89.753L89.5863 3.67421C89.4416 4.7624 88.9312 5.22433 88.0732 5.24115H87.2463V8.39834H89.3783C89.3783 8.39834 89.3524 12.7201 89.4041 14.4927C89.4558 16.5242 90.567 17.9993 92.4018 18.5168C93.7586 18.905 95.1153 18.7368 96.485 18.4392Z" fill="#1A1618"/>
</svg>
