<svg width="219" height="57" viewBox="0 0 219 57" fill="none" xmlns="http://www.w3.org/2000/svg">
<path fill-rule="evenodd" clip-rule="evenodd" d="M24.2668 0C26.269 0 28.2713 0.281551 30.1533 0.965316H30.1934C37.3213 3.45905 41.3657 8.48674 42.0064 16.0082C42.6071 23.3687 40.0042 29.2813 33.477 33.223C33.3334 33.3095 33.195 33.396 33.0506 33.4862L33.0503 33.4865C32.7922 33.6478 32.5149 33.8211 32.1555 34.0274L46.3802 55.9079L34.1867 55.8677L21.0633 35.6362H10.7719V55.8677H0L0.0400443 0.0402215C0.0400443 0.0402215 16.6184 0 24.2668 0ZM10.852 9.61294V25.8624L24.3469 25.782C28.8279 25.782 31.4347 21.7598 31.3146 17.4964C31.1945 13.2329 28.7398 9.65316 24.3469 9.65316L10.852 9.61294Z" fill="#1A1618"/>
<path fill-rule="evenodd" clip-rule="evenodd" d="M209.391 43.6805L215.398 50.2366C212.315 53.1728 208.791 55.1034 204.706 56.0687C194.455 58.5222 184.404 54.661 179.518 46.3754C171.109 32.0967 181 14.3188 197.578 13.9568C210.993 13.6351 219.963 23.5698 218.241 36.8026C218.121 37.5668 217.697 39.0288 217.395 39.7881H187.928C189.558 46.6791 200.141 50.5584 209.391 43.6805ZM187.928 31.1092L208.015 31.1319C207.815 26.3053 204.266 23.2882 198.9 22.9664C193.654 22.6447 188.608 26.2022 187.928 31.1092Z" fill="#1A1618"/>
<path fill-rule="evenodd" clip-rule="evenodd" d="M92.0217 35.3949C92.1018 23.248 82.5312 13.9166 70.0374 13.9166C57.5836 13.9568 48.2133 23.0871 48.2133 35.2742C48.1732 47.4613 57.5036 56.7123 69.9173 56.7525C82.4511 56.7927 91.9416 47.582 92.0217 35.3949ZM69.9974 24.0122C76.4445 23.972 81.45 28.9192 81.45 35.3144C81.45 41.7097 76.3644 46.6569 70.0374 46.6569C63.7104 46.6569 58.8651 41.7499 58.785 35.3547C58.7049 29.0399 63.6704 24.0524 69.9974 24.0122Z" fill="#1A1618"/>
<path d="M99.1897 14.8417H109.521L109.761 39.0148C109.761 44.3201 113.245 47.0994 118.571 46.7776C122.856 46.5363 125.619 43.6001 125.779 38.5322C125.979 31.4934 125.939 14.8819 125.939 14.8819H136.431C136.431 14.8819 136.631 31.3728 136.311 39.3366C135.83 49.7138 128.782 56.471 118.651 56.7123C107.759 56.9536 99.1897 49.6695 99.1897 40.3019V14.8417Z" fill="#1A1618"/>
<path d="M172.05 55.8275V46.0939L166.804 46.5765C162.56 46.8178 160.557 45.0481 160.477 40.8248V24.5351H171.129V14.7613H160.477V3.41885H151.187L150.671 9.93071C150.222 13.3133 148.64 14.7492 145.981 14.8015H143.419V24.6156H150.026C150.026 24.6156 149.946 38.0496 150.106 43.5599C150.266 49.8747 153.71 54.4599 159.396 56.0688C163.601 57.2754 167.806 56.7525 172.05 55.8275Z" fill="#1A1618"/>
</svg>
