<svg version="1.1" id="Layer_1" xmlns="http://www.w3.org/2000/svg" xmlns:xlink="http://www.w3.org/1999/xlink" x="0px" y="0px" viewBox="0 0 294.7 65" xml:space="preserve">
 <style type="text/css">
  .st0{fill:#012754;}
 </style>
 <metadata>
  <sfw xmlns="ns_sfw;">
   <slices>
   </slices>
   <sliceSourceBounds bottomLeftOrigin="true" height="65" width="294.7" x="-153.7" y="0.9">
   </sliceSourceBounds>
  </sfw>
 </metadata>
 <g>
  <path class="st0" d="M161.5,38.8v13.5c0,0.7-0.3,1.3-0.8,1.8c-0.5,0.5-1.1,0.8-1.8,0.8h-0.2c-0.7,0-1.3-0.3-1.8-0.8
		c-0.5-0.5-0.8-1.1-0.8-1.8V40.7c0-5.9-2.2-8.9-6.6-8.9c-6.2,0-8.5,5.5-8.5,9v11.5c0,0.7-0.3,1.3-0.8,1.8c-0.5,0.5-1.1,0.8-1.8,0.8
		h-0.2c-0.7,0-1.3-0.3-1.8-0.8c-0.5-0.5-0.8-1.1-0.8-1.8V29.8c0-0.7,0.2-1.4,0.7-1.9c0.5-0.5,1.1-0.8,1.8-0.8c0.7,0,1.4,0.2,1.9,0.7
		c0.5,0.5,0.8,1.1,0.8,1.8l0.1,1.2c0,0,0,0.1,0,0.1c0,0,0,0,0.1,0.1c0,0,0.1,0,0.1,0c0,0,0.1,0,0.1,0c1.3-1.3,2.8-2.4,4.5-3.2
		c1.7-0.7,3.5-1.1,5.4-1.2C157.7,26.7,161.5,31.1,161.5,38.8z M122.8,39.1l-1.8-0.7c-4-1.5-6-2.3-6-4.1s2.2-2.9,4.3-2.9
		c1.3,0,3.1,0.5,4.1,1.8c0.3,0.4,0.7,0.8,1.2,1c0.5,0.2,1,0.2,1.6,0.1c0.4-0.1,0.8-0.3,1.1-0.6c0.3-0.3,0.5-0.7,0.7-1.1
		c0.1-0.4,0.1-0.9,0-1.3c-0.1-0.4-0.3-0.8-0.6-1.1c-1.8-2.1-4.8-3.3-8.2-3.3c-4.6,0-9.5,2.7-9.5,7.6c0,4.7,4.2,6.7,7.8,8l1.8,0.7
		c4.4,1.6,6.3,2.4,6.3,4.7c0,1.9-2.1,3.1-5.1,3.1c-2.8,0-4.8-0.9-5.9-2.6c-0.2-0.4-0.6-0.7-1-0.9c-0.4-0.2-0.8-0.3-1.3-0.3H112
		c-0.4,0-0.9,0.1-1.2,0.4c-0.4,0.2-0.7,0.5-0.9,0.9c-0.2,0.4-0.3,0.8-0.3,1.2c0,0.4,0.1,0.8,0.3,1.2c1.8,3.2,5.6,4.9,10.5,4.9
		c6.3,0,10.6-3.1,10.6-7.7C130.9,43.8,128.4,41.2,122.8,39.1L122.8,39.1z M294.3,28.4c-0.2-0.4-0.6-0.7-0.9-0.9
		c-0.4-0.2-0.8-0.3-1.2-0.3h-0.1c-0.5,0-1,0.2-1.4,0.4c-0.4,0.3-0.7,0.7-0.9,1.1l-8,18.4c0,0-0.1,0.1-0.1,0.1c0,0-0.1,0-0.1,0l0,0
		c-0.1,0-0.1,0-0.1,0c0,0-0.1-0.1-0.1-0.1l-8-18.4c-0.2-0.5-0.5-0.9-0.9-1.1c-0.4-0.3-0.9-0.4-1.4-0.4h-0.1c-0.4,0-0.8,0.1-1.2,0.3
		c-0.4,0.2-0.7,0.5-0.9,0.9c-0.2,0.4-0.4,0.8-0.4,1.2c0,0.4,0,0.9,0.2,1.2l10.2,23.3c0,0.1,0.1,0.2,0.1,0.3c0,0.1,0,0.2-0.1,0.3
		l-2.8,6.7c-0.2,0.4-0.2,0.8-0.2,1.2c0,0.4,0.2,0.8,0.4,1.2c0.2,0.4,0.6,0.7,0.9,0.9c0.4,0.2,0.8,0.3,1.2,0.3h0c0.5,0,1-0.2,1.4-0.4
		c0.4-0.3,0.7-0.7,0.9-1.1l14-32.5c0.2-0.4,0.2-0.8,0.2-1.3C294.7,29.2,294.6,28.8,294.3,28.4L294.3,28.4z M195.9,29.8v22.4
		c0,0.7-0.3,1.3-0.8,1.8c-0.5,0.5-1.1,0.7-1.8,0.8c-0.7,0-1.3-0.2-1.8-0.7c-0.5-0.5-0.8-1.1-0.8-1.8l-0.1-1.8c0,0,0-0.1,0-0.1
		c0,0-0.1-0.1-0.1-0.1c0,0-0.1,0-0.1,0c0,0-0.1,0-0.1,0.1c-1.2,1.6-2.7,2.8-4.4,3.7c-1.8,0.9-3.7,1.3-5.6,1.3c-7.8,0-14-6.3-14-14.4
		s6.1-14.3,14-14.3c2,0,3.9,0.4,5.6,1.3c1.8,0.9,3.3,2.1,4.4,3.7c0,0,0.1,0.1,0.1,0.1c0,0,0.1,0,0.1,0c0,0,0.1,0,0.1-0.1
		c0,0,0-0.1,0-0.1l0.1-1.8c0-0.7,0.3-1.3,0.8-1.8c0.5-0.5,1.1-0.7,1.8-0.7c0.7,0,1.3,0.3,1.8,0.8C195.6,28.5,195.9,29.2,195.9,29.8
		L195.9,29.8z M190.1,41c0-1.2-0.2-2.4-0.7-3.5c-0.5-1.1-1.1-2.1-2-3c-0.9-0.9-1.9-1.5-3-2c-1.1-0.5-2.3-0.7-3.5-0.7
		c-1.3,0-2.6,0.3-3.8,0.8c-1.2,0.5-2.3,1.3-3.1,2.3c-0.9,1-1.5,2.1-1.9,3.3c-0.4,1.2-0.5,2.5-0.4,3.8c0.3,2.4,1.5,4.6,3.3,6.1
		c1.9,1.5,4.2,2.3,6.6,2.1c2.3-0.2,4.5-1.2,6.1-3C189.3,45.6,190.1,43.3,190.1,41L190.1,41z M265.8,41c0,8.1-6.2,14.4-14,14.4
		c-2,0-3.9-0.4-5.6-1.3c-1.8-0.9-3.3-2.1-4.4-3.7c0,0,0,0-0.1-0.1c0,0-0.1,0-0.1,0c0,0-0.1,0-0.1,0.1c0,0,0,0.1,0,0.1v11.9
		c0,0.7-0.3,1.3-0.8,1.8c-0.5,0.5-1.1,0.8-1.8,0.8h-0.2c-0.7,0-1.3-0.3-1.8-0.8c-0.5-0.5-0.8-1.1-0.8-1.8V29.8
		c0-0.7,0.3-1.3,0.8-1.8c0.5-0.5,1.1-0.7,1.8-0.8s1.3,0.2,1.8,0.7c0.5,0.5,0.8,1.1,0.8,1.7l0.1,2c0,0,0,0.1,0,0.1c0,0,0,0,0.1,0.1
		c0,0,0.1,0,0.1,0c0,0,0.1,0,0.1-0.1c1.1-1.6,2.7-2.9,4.4-3.8c1.8-0.9,3.7-1.3,5.7-1.3C259.7,26.7,265.9,33,265.8,41L265.8,41z
		 M251.1,31.8c-1.2,0-2.5,0.2-3.6,0.6c-1.1,0.5-2.2,1.1-3.1,2c-0.9,0.9-1.6,1.9-2.1,3c-0.5,1.1-0.7,2.4-0.7,3.6
		c0,1.2,0.2,2.5,0.7,3.6c0.5,1.1,1.2,2.2,2.1,3c0.9,0.9,1.9,1.5,3.1,2c1.1,0.5,2.4,0.7,3.6,0.6c1.2,0,2.5-0.2,3.6-0.6
		c1.1-0.5,2.2-1.1,3.1-2c0.9-0.9,1.6-1.9,2.1-3c0.5-1.1,0.7-2.4,0.7-3.6c0-1.2-0.2-2.5-0.7-3.6c-0.5-1.1-1.2-2.2-2.1-3
		c-0.9-0.9-1.9-1.5-3.1-2C253.6,32,252.4,31.8,251.1,31.8L251.1,31.8z M231.1,41c0,8.1-6.2,14.4-14,14.4c-2,0-3.9-0.4-5.6-1.3
		c-1.8-0.9-3.3-2.1-4.4-3.7c0,0,0-0.1-0.1-0.1c0,0-0.1,0-0.1,0c0,0-0.1,0-0.1,0.1c0,0,0,0.1,0,0.1v11.9c0,0.7-0.3,1.3-0.8,1.8
		c-0.5,0.5-1.1,0.8-1.8,0.8h-0.2c-0.7,0-1.3-0.3-1.8-0.8c-0.5-0.5-0.8-1.1-0.8-1.8V29.8c0-0.7,0.3-1.3,0.8-1.8
		c0.5-0.5,1.1-0.7,1.8-0.8s1.3,0.2,1.8,0.7c0.5,0.5,0.8,1.1,0.8,1.7l0.1,2c0,0,0,0.1,0,0.1c0,0,0.1,0,0.1,0.1c0,0,0.1,0,0.1,0
		c0,0,0.1,0,0.1-0.1c1.1-1.6,2.7-2.9,4.4-3.8c1.8-0.9,3.7-1.3,5.7-1.3C224.9,26.7,231,33,231.1,41L231.1,41z M216.3,31.8
		c-2.4,0.1-4.7,1.1-6.4,2.8c-1.7,1.7-2.6,4-2.6,6.5c0,2.4,0.9,4.7,2.6,6.5c1.7,1.7,4,2.7,6.4,2.8c1.2,0,2.5-0.2,3.6-0.6
		c1.1-0.5,2.2-1.1,3.1-2c0.9-0.9,1.6-1.9,2.1-3c0.5-1.1,0.7-2.4,0.7-3.6c0-1.2-0.2-2.5-0.7-3.6c-0.5-1.1-1.2-2.2-2.1-3
		c-0.9-0.9-1.9-1.5-3.1-2C218.8,32,217.6,31.8,216.3,31.8z">
  </path>
  <path class="st0" d="M98.7,36.4c-1.1-6-7.1-10.1-13.9-9.7c-0.5,0-1-0.1-1.5-0.3c-0.5-0.2-0.9-0.5-1.2-0.9c-4.4-5.3-10-9.5-16.4-12
		h0.2c-6.3-3.9-9.2-11-12.3-11c-3.1,0-0.1,6.3-2.5,6.3S46.3,0,42.4,0c-3.9,0-0.5,9.4-2.6,9.4c-2.2,0-2.9-2.9-6.2-2.9
		c-2.3,0-1.7,3.6-1.1,5.7c0.1,0.4,0.1,0.8-0.1,1.2c-0.2,0.4-0.5,0.7-0.9,0.9C25.8,17,20,21.7,16.8,25.5c-0.3,0.4-0.7,0.7-1.2,0.9
		c-0.5,0.2-1,0.3-1.5,0.3c-6.8-0.5-12.9,3.6-13.9,9.7c-0.8,4.6,1.5,9.2,5.6,11.9c0.5,0.3,0.8,0.7,1.1,1.2c0.2,0.5,0.4,1,0.3,1.6
		c0,0.9-0.1,1.8-0.1,2.6c0.1,2,3.3,2,3.3,0c0-5.4,5.4-35.5,39-35.5s39,30.1,39,35.5c0,2,3.2,2,3.3,0c0-0.9,0-1.8-0.1-2.7
		c0-0.6,0.1-1.1,0.3-1.6c0.2-0.5,0.6-0.9,1.1-1.2C97.2,45.7,99.5,41.1,98.7,36.4L98.7,36.4z M8.4,42.8c0,0.2-0.1,0.4-0.3,0.5
		c-0.1,0.1-0.3,0.2-0.5,0.3c-0.2,0.1-0.4,0.1-0.6,0c-0.2,0-0.4-0.1-0.5-0.3c-0.8-0.8-1.4-1.7-1.7-2.8c-0.4-1.1-0.5-2.2-0.3-3.3
		c0.5-2.9,3.1-5.1,6.3-5.8c0.2,0,0.4,0,0.6,0c0.2,0.1,0.4,0.2,0.5,0.4c0.1,0.2,0.2,0.4,0.2,0.6c0,0.2,0,0.4-0.1,0.6
		C10.5,36.1,9.2,39.4,8.4,42.8L8.4,42.8z M90.5,42.8c-0.8-3.4-2-6.7-3.6-9.8c-0.1-0.2-0.1-0.4-0.1-0.6c0-0.2,0.1-0.4,0.2-0.6
		s0.3-0.3,0.5-0.4c0.2-0.1,0.4-0.1,0.6,0c3.2,0.7,5.7,2.9,6.3,5.8c0.2,1.1,0.1,2.2-0.3,3.2c-0.3,1-0.9,2-1.7,2.8
		c-0.1,0.1-0.3,0.2-0.5,0.3c-0.2,0.1-0.4,0.1-0.6,0c-0.2,0-0.4-0.2-0.5-0.3C90.7,43.2,90.6,43,90.5,42.8L90.5,42.8z M72.1,38.8
		c1.9,0,3.5,2,3.5,4.5c0,2.5-1.6,4.5-3.5,4.5c-1.9,0-3.5-2-3.5-4.5C68.6,40.8,70.2,38.8,72.1,38.8z M26.8,38.8c1.9,0,3.5,2,3.5,4.5
		c0,2.5-1.6,4.5-3.5,4.5c-1.9,0-3.5-2-3.5-4.5C23.3,40.8,24.8,38.8,26.8,38.8L26.8,38.8z M65.2,55.7c0.4,0,0.7,0.2,0.9,0.4
		c0.2,0.3,0.4,0.6,0.4,1c0,0.4-0.1,0.7-0.4,1c-0.2,0.3-0.6,0.4-0.9,0.4l0,0c-0.8,0-1.5-0.2-2.2-0.5c-0.8,0.7-5.6,4.2-13.5,4.2
		c-7.8,0-12.5-3.4-13.4-4.1c-0.7,0.3-1.4,0.4-2.1,0.5c-0.4,0-0.7-0.2-0.9-0.4c-0.2-0.3-0.4-0.6-0.4-1c0-0.4,0.1-0.7,0.4-1
		c0.2-0.3,0.6-0.4,0.9-0.4c0.5-0.1,1-0.2,1.5-0.5c0.4-0.3,0.8-0.6,1.1-1c0.1-0.2,0.2-0.3,0.3-0.5c0.1-0.1,0.3-0.2,0.5-0.3
		c0.2-0.1,0.4-0.1,0.6-0.1c0.2,0,0.4,0.1,0.6,0.2c0.2,0.1,0.3,0.2,0.4,0.4c0.1,0.2,0.2,0.3,0.2,0.5c0,0.2,0,0.4,0,0.6
		c0,0.2-0.1,0.4-0.2,0.5c-0.1,0.2-0.2,0.3-0.3,0.5c3.3,2,7,3.1,10.9,3c3.9,0.1,7.7-1,11-3.1c-0.1-0.1-0.2-0.3-0.3-0.4
		c-0.2-0.3-0.2-0.7-0.1-1.1c0.1-0.4,0.3-0.7,0.7-0.9c0.3-0.2,0.7-0.2,1.1-0.1s0.7,0.3,0.9,0.7c0.3,0.4,0.7,0.8,1.1,1
		C64.1,55.5,64.6,55.7,65.2,55.7">
  </path>
 </g>
</svg>