<svg width="123" height="29" viewBox="0 0 123 29" fill="none" xmlns="http://www.w3.org/2000/svg">
<path d="M36.4453 16.6853V7.70508H40.559V15.9428C40.559 17.75 41.0577 19.6974 43.5924 19.6974C46.1271 19.6974 46.6811 17.75 46.6811 15.9428V7.70508H50.7117V16.6292C50.7117 20.3278 48.3432 23.3959 43.5924 23.3959C38.8692 23.3959 36.4453 20.3278 36.4453 16.6853Z" fill="#1C1468"/>
<path d="M62.3177 7.50977C59.9492 7.50977 58.1763 8.36435 57.0267 10.0455V7.7059H53.1484V27.6977H57.2344V21.2252C58.204 22.4301 59.7138 23.2006 61.9022 23.2006C65.6419 23.2006 69.1185 20.3426 69.1185 15.3131C69.1185 10.1576 66.0021 7.50977 62.3177 7.50977ZM61.0296 19.502C58.7857 19.502 57.1513 18.031 57.1513 15.3131C57.1513 12.6513 58.9104 11.2363 61.2651 11.2363C63.3427 11.2363 65.0048 12.6233 65.0048 15.3972C65.0048 18.1431 63.218 19.502 61.0296 19.502Z" fill="#1C1468"/>
<path d="M70.2656 17.9334C71.6369 18.9141 73.6591 19.8808 76.3323 19.8808C77.9667 19.8808 78.8393 19.4325 78.8393 18.5779C78.8393 17.6953 77.6758 17.4011 75.3351 16.8687C71.7754 16.0141 70.3072 14.7392 70.3072 12.2035C70.3072 8.84117 72.9388 7.32812 76.637 7.32812C79.0332 7.32812 80.9031 7.86049 81.9558 8.50494V12.4276C80.7923 11.5731 78.5623 10.9146 76.5539 10.9146C75.2104 10.9146 74.3378 11.2368 74.3378 12.0914C74.3378 12.918 75.1273 13.2402 77.0526 13.6605C81.2078 14.5291 82.7591 15.832 82.7591 18.4938C82.7591 22.8088 78.6454 23.3972 76.1938 23.3972C73.6868 23.3972 71.4568 22.6547 70.2656 21.8001V17.9334Z" fill="#1C1468"/>
<path d="M83.9844 3.60073C83.9844 2.15773 85.037 1.20508 86.5606 1.20508C88.2505 1.20508 89.1646 2.14372 89.1646 3.60073C89.1646 4.98769 88.2643 5.96836 86.5606 5.96836C85.037 5.96836 83.9844 4.98769 83.9844 3.60073Z" fill="#1C1468"/>
<path d="M88.6251 7.70508H84.5391V23.0036H88.6251V7.70508Z" fill="#1C1468"/>
<path d="M102.42 1.56836V9.48382C101.45 8.27899 99.9403 7.50846 97.7518 7.50846C94.0121 7.50846 90.5078 10.3664 90.5078 15.3959C90.5078 20.5655 93.6658 23.2273 97.3363 23.2273C99.7048 23.2273 101.478 22.3727 102.627 20.6916V23.0312H106.506V1.56836H102.42ZM98.389 19.5007C96.3113 19.5007 94.6492 18.1138 94.6492 15.3399C94.6492 12.594 96.436 11.235 98.5967 11.235C100.868 11.235 102.544 12.706 102.544 15.4239C102.53 18.0157 100.716 19.5007 98.389 19.5007Z" fill="#1C1468"/>
<path d="M115.938 7.32812C111.755 7.32812 108.32 10.2281 108.32 15.5658C108.32 20.7634 111.977 23.3972 116.257 23.3972C118.861 23.3972 121.105 22.7528 122.365 21.5619V18.0175C120.814 19.2924 118.972 19.7967 116.783 19.7967C114.595 19.7967 112.877 19.0822 112.309 16.9668H122.85C123.764 9.89189 119.872 7.32812 115.938 7.32812ZM112.254 13.9687C112.628 11.7552 113.944 10.8445 116.049 10.8445C117.808 10.8445 119.138 11.6431 119.29 13.9407L112.254 13.9687Z" fill="#1C1468"/>
<path d="M26.94 7.70508V15.6065C26.7461 22.9616 20.7902 28.8737 13.4631 28.8737C6.14979 28.8737 0.193912 22.9616 0 15.6065V7.70508H6.96699V15.6065C7.16091 19.0809 9.98649 21.8268 13.4631 21.8268C16.9396 21.8268 19.7791 19.0809 19.973 15.6065V7.70508H26.94Z" fill="#0047FF"/>
<path d="M13.4766 14.2478L27.5491 0H13.4766V14.2478Z" fill="#0047FF"/>
</svg>
